<svg xmlns="http://www.w3.org/2000/svg" viewBox="0 0 282.77 56.6"><defs><style>.cls-1{fill:#f55714;}.cls-2{fill:#eba927;}.cls-3{fill:#6b6c6f;}.cls-4{fill:#2374b7;}</style></defs><g id="Layer_2" data-name="Layer 2"><g id="Layer_1-2" data-name="Layer 1"><path class="cls-1" d="M30.83,0C35.88,0,40.92,0,46,.05A15.86,15.86,0,0,1,61.32,15.57c.08,7.62-.39,15.27.14,22.85.6,8.75-5.36,17.68-16.18,18C34.66,56.76,24,56.62,13.4,56,5.82,55.47,0,48.31,0,40.78Q0,28.16,0,15.56A15.87,15.87,0,0,1,15,.07c5.27-.13,10.54,0,15.8,0Zm0,3c-4.72,0-9.43-.09-14.14,0-7.36.18-13,5.1-13.35,12.44-.42,8.39-.41,16.82,0,25.21.31,7.43,5.67,12.45,13.15,12.61q14.29.32,28.6,0c7.29-.17,12.68-5.07,13-12.35A242,242,0,0,0,58,15.36C57.61,8,52,3.16,44.61,3,40,2.9,35.41,3,30.81,3Z"></path><path class="cls-2" d="M126.65,34.12a20.94,20.94,0,0,1-1,2.25c-1.18,2.18-2.92,4.23-5.49,3.52a9,9,0,0,1-5-3.75,10.81,10.81,0,0,1-.11-10.65,8.82,8.82,0,0,1,5.2-3.93c2.61-.58,4.53,1.43,5.55,3.93.4,1,1.48.35,1.39,3.77m-.47,4.48-.15.38m1.08-4.86c.39-1.35,1-3.69,1.43-4.14,1.52-1.43,3.35-3.33,5.15-3.43,1.62-.1,4,1.55,4.94,3.1a11.64,11.64,0,0,1,.15,11.86c-2.36,4.56-7.53,4.57-10.09.16-.4-.67-1-1.93-1.51-2.88m2.89-2.49c1.25,1.69,2.48,4.77,3.75,4.78,2.75,0,2.7-3.1,2.76-5.22.07-2.37.21-5.86-2.79-5.93C131.17,25,131.94,28.6,130.69,31.44ZM116.84,30l.8.55a5.52,5.52,0,0,0,.19,2c.71,1.37,1.61,2.64,2.43,3.95.95-1.32,2-2.59,2.8-4a3.81,3.81,0,0,0,.15-2c-.14-2.31.16-5.41-2.81-5.51C119.27,25,118,28.27,116.84,30Z"></path><path class="cls-2" d="M254.35,36.09a.93.93,0,0,1,.05-.24h-5.05V14h-3.6V39.64h8.6Z"></path><path class="cls-2" d="M265.73,37.1a2.52,2.52,0,0,0-1.2-.94,26.28,26.28,0,0,0-4.69-.07v-22c-2.93-.91-3.65.14-3.58,2.52.12,4,0,8.07,0,12.11v7a1,1,0,0,1,.07.35v3.56c2.75,0,5.49,0,8.23-.09.4,0,.79-.47,1.18-1"></path><path class="cls-2" d="M212,36.72c0-4.14-.22-8.28-.15-12.41,0-2.81-1.35-2.82-3.49-2.17-.17,1.61-.33,3.15-.58,5.6v6.42c.25,1,.16,1.88.43,2.59.39,1,1,2.6,1.73,2.78C212.15,40.06,212,38.15,212,36.72Z"></path><path class="cls-2" d="M205.44,25.38c-1.17-2.61-3.08-4.07-6.05-3.82s-4.64,2.27-5.08,5a20.06,20.06,0,0,0-.22,2.05.51.51,0,0,1,.28.74.51.51,0,0,1,.14.58h0V46.81c2.12.82,2.87,0,2.73-2.15-.11-1.53,0-3.07,0-4.93,5.39,1.6,7.54-1.67,9.33-5.6V27.55C205.94,26.39,205.67,25.9,205.44,25.38Zm-5.58,11c-2.94-.1-2.56-3.42-2.56-5.66s-.44-5.41,2.68-5.44c1.18,0,2.39,3.15,3.59,4.86C202.3,32.9,203.3,36.47,199.86,36.36Z"></path><path class="cls-2" d="M100.33,13.84c4,.08,8.11-1.25,10.74,2.55,2,2.86,1.41,6-.71,8.7,2.61,3.76,3.86,7.69,1.23,11.66s-7.12,2.7-11.26,2.92ZM104,35.89c3.91.19,5.19-.85,5.17-4,0-3.46-1.73-5.09-5.17-4.76Zm0-18.63v5.93c2.36.29,4.23,0,4.38-2.7C108.57,17.54,106.64,17.09,104,17.26Z"></path><path class="cls-2" d="M92,18.06c-.83.61-1.53,1.12-2.93,2.12a7.28,7.28,0,0,0-.91-1.78c-2.14-2.28-4.37-2.14-5.53.64a18,18,0,0,0,0,15c.55,1.19,2.79,1.59,4.26,2.35a15.66,15.66,0,0,0,1.47-3.61,38.16,38.16,0,0,0,.07-5.48l-3.24-.76c-.08-.44-.38-1-.23-1.45.22-.63.66-1.46,1.2-1.65,4.08-1.44,6-.09,6,4.15a49.23,49.23,0,0,0,0,5.7c.36,3.23-.62,5.43-3.9,6.38a7.7,7.7,0,0,1-8.53-3.14c-3-4.57-3-15.15,0-19.72C83.25,11.72,88.33,12.11,92,18.06Z"></path><path class="cls-2" d="M232.64,40.18c-5.77-.29-9.13-5.13-7.7-11.26A14.35,14.35,0,0,1,227,23.54c2.77-3.59,8.58-2.88,9.25,1.44.94,6.07.63,12.38.2,18.54-.09,1.29-3.06,3.37-4.63,3.31-2-.08-4-1.85-5.73-3.23-.32-.26.66-2.14,1.16-3.65,4.2,4.51,4.87,4.54,6,.89,0-.25.09-.51.13-.76Zm2.43-9.59c-1.46-2.24-2.61-5.5-3.81-5.53-3.15-.06-2.35,3.3-2.87,5.42a.91.91,0,0,0,0,.33c.48,2.14-.29,5.48,2.83,5.43C232.42,36.22,233.56,32.91,235.07,30.59Z"></path><path class="cls-2" d="M65.83,39.44V13.91H76.45l.2,3.35H69.49v5.87a33.71,33.71,0,0,1,5,.3c.72.15,1.26,1.15,1.88,1.76-.64.56-1.23,1.48-2,1.6a31.27,31.27,0,0,1-4.88.07V36h7.23v3.41Z"></path><path class="cls-2" d="M280.24,33.16l2.53,1.5a10.41,10.41,0,0,1-.75,1.53c-3.94,5.61-10.8,5-13.55-1.27a19.59,19.59,0,0,1,.07-16.6,7.92,7.92,0,0,1,6.61-5.06c2.69-.27,5.31,1.53,7.18,4.73-1.35,1.81-2.46,2-4.17.1-1.94-2.12-4.2-1.64-5.9.79-2.51,3.59-2.4,12.18.2,15.75C274.54,37.5,276.25,37.23,280.24,33.16Z"></path><path class="cls-2" d="M159.62,34.93c-.08,1.28.11,2.17-.23,2.77a9.82,9.82,0,0,1-1.95,2c-.58-.62-1.67-1.24-1.68-1.87-.12-7.47-.07-14.94-.07-22.62h3.68V25.82c2.87-1.59,4.32-5.52,8.49-3.49l-7.08,7.9,7.39,8.86C163.59,41.19,162.45,37,159.62,34.93Z"></path><path class="cls-2" d="M154.68,39.21c-4.59,1.95-5.91-2.2-8.45-4.08-1,1.73.73,5.73-3.84,4.19V15.17l3.26-.24V26.07c2.84-2.28,4.62-5.47,8.66-3.89-1.85,2.08-3.6,4.2-5.52,6.15-1.4,1.43-1.34,2.55,0,4C150.78,34.49,152.64,36.81,154.68,39.21Z"></path><path class="cls-2" d="M219.87,39.15c0-3.65.11-7.34-.06-11-.05-1-.93-2-1.42-3.06-.72,1-1.94,1.9-2.07,3-.35,2.87-.25,5.81-.33,8.72s-.09,3-3.38,2.51c0-4.2-.33-8.45.1-12.62a5.43,5.43,0,0,1,5.84-5.3c2.86,0,4.64,1.84,5,5.69.28,3.33.08,6.71.16,10.07C223.73,39.42,222.73,40.15,219.87,39.15Z"></path><path class="cls-2" d="M172.89,33.66c.81,3.57,1.27,3.64,4.54.85a2.35,2.35,0,0,1,.86.32A25,25,0,0,1,180,36.72c-1.38,1.05-2.51,2.38-3.94,2.91-2.24.82-4.66.41-5.82-1.9a15.63,15.63,0,0,1-1.19-5.44,31.87,31.87,0,0,1,0-5.35c.24-3.49,2-5.36,5.07-5.58a5.25,5.25,0,0,1,5.63,4.23c.74,3.38-.71,6.33-3.7,7.33A31.4,31.4,0,0,1,172.89,33.66Zm-1.12-4c3.22.11,4.72-.59,4.51-2.9-.06-.64-1.22-1.19-1.88-1.79Z"></path><path class="cls-2" d="M185.23,33.67c.92,3.52,1.33,3.58,4.74.82,2.62,1.32,2.34,2.74.17,4.3-2.51,1.8-6.61,1.64-7.29-.91a37.76,37.76,0,0,1-1.31-13.06c.21-2.26,3.25-3.83,6.17-3.4a5.16,5.16,0,0,1,4.64,5c.3,2.91-.73,5.32-3.65,6.47A25.51,25.51,0,0,1,185.23,33.67ZM184,29.53c3.17.36,4.72-.28,4.67-2.56,0-.72-1.23-1.41-1.89-2.12Z"></path><path class="cls-2" d="M213,18.34c-1.36,1-2.16,2.14-2.92,2.11s-1.49-1.17-2.23-1.82c.68-.74,1.28-1.95,2.07-2.09S211.57,17.44,213,18.34Z"></path><path class="cls-3" d="M50.1,36.67C39.69,44.11,27.16,38.3,24.65,27.9a14.82,14.82,0,0,1,1.24-10.73c.38-.73,1.6-1,2.43-1.5l0-.06.79,1.33,1.26,1.25A11.14,11.14,0,0,0,32,32.51a11.64,11.64,0,1,0,6.33-19.87c-1.75.32-3.48.69-5.22,1l-1.39-1.45c.66-.88,1.12-2.16,2-2.57,10.08-4.78,22.17,2.81,22.22,14,0,4.78.3,9.76-.88,14.29-2.59,9.94-14.88,14.12-23.41,8.28l1.86-3c9.74,2.38,14.55.71,17.23-5.88.11-.39.23-.77.35-1.15Z"></path><path class="cls-4" d="M30.35,18.19l-1.26-1.25c-.26-.44-.52-.89-.79-1.33l0,.06a10.32,10.32,0,0,0-11.58-2.43A11,11,0,0,0,9.58,23.5H22.73l.49,4.24H9.93C7.08,39.69,15.51,48,27.42,43.19l2,3.21c-5,3-9.88,3.41-14.91,1.19C8.66,45,5.49,40.28,5,34a59.69,59.69,0,0,1,.12-11.42C6.54,10,20.34,4.05,30.6,11.55a12.58,12.58,0,0,0,1.11.67l1.39,1.45c2.92,4.24,4.55,8.78,3.55,14-6.78.56-6.91.49-6.79-3.73L33,23.16Z"></path><path class="cls-4" d="M29.09,16.94c-.26-.44-.52-.89-.79-1.33"></path></g></g></svg>